<svg width="706" height="327" viewBox="0 0 706 327" fill="none" xmlns="http://www.w3.org/2000/svg">
<path d="M31.5 0C30.1193 0 29 1.11929 29 2.5C29 3.88071 30.1193 5 31.5 5V0ZM703 2.5H705.5V0H703V2.5ZM703 168.5V171H705.5V168.5H703ZM2.5 168.5V166H0V168.5H2.5ZM2.5 324.5H0V327H2.5V324.5ZM668.5 327C669.881 327 671 325.881 671 324.5C671 323.119 669.881 322 668.5 322V327ZM31.5 5H41.375V0H31.5V5ZM61.125 5H80.875V0H61.125V5ZM100.625 5H120.375V0H100.625V5ZM140.125 5H159.875V0H140.125V5ZM179.625 5H199.375V0H179.625V5ZM219.125 5H238.875V0H219.125V5ZM258.625 5H278.375V0H258.625V5ZM298.125 5H317.875V0H298.125V5ZM337.625 5H357.375V0H337.625V5ZM377.125 5H396.875V0H377.125V5ZM416.625 5H436.375V0H416.625V5ZM456.125 5H475.875V0H456.125V5ZM495.625 5H515.375V0H495.625V5ZM535.125 5H554.875V0H535.125V5ZM574.625 5H594.375V0H574.625V5ZM614.125 5H633.875V0H614.125V5ZM653.625 5H673.375V0H653.625V5ZM693.125 5H703V0H693.125V5ZM700.5 2.5V12.875H705.5V2.5H700.5ZM700.5 33.625V54.375H705.5V33.625H700.5ZM700.5 75.125V95.875H705.5V75.125H700.5ZM700.5 116.625V137.375H705.5V116.625H700.5ZM700.5 158.125V168.5H705.5V158.125H700.5ZM703 166H693.271V171H703V166ZM673.812 166H654.354V171H673.812V166ZM634.896 166H615.438V171H634.896V166ZM595.979 166H576.521V171H595.979V166ZM557.062 166H537.604V171H557.062V166ZM518.146 166H498.688V171H518.146V166ZM479.229 166H459.771V171H479.229V166ZM440.312 166H420.854V171H440.312V166ZM401.396 166H381.937V171H401.396V166ZM362.479 166H343.021V171H362.479V166ZM323.562 166H304.104V171H323.562V166ZM284.646 166H265.187V171H284.646V166ZM245.729 166H226.271V171H245.729V166ZM206.812 166H187.354V171H206.812V166ZM167.896 166H148.437V171H167.896V166ZM128.979 166H109.521V171H128.979V166ZM90.0625 166H70.6042V171H90.0625V166ZM51.1459 166H31.6876V171H51.1459V166ZM12.2293 166H2.5V171H12.2293V166ZM0 168.5V178.25H5V168.5H0ZM0 197.75V217.25H5V197.75H0ZM0 236.75V256.25H5V236.75H0ZM0 275.75V295.25H5V275.75H0ZM0 314.75V324.5H5V314.75H0ZM2.5 327H12.2941V322H2.5V327ZM31.8824 327H51.4706V322H31.8824V327ZM71.0588 327H90.6471V322H71.0588V327ZM110.235 327H129.824V322H110.235V327ZM149.412 327H169V322H149.412V327ZM188.588 327H208.176V322H188.588V327ZM227.765 327H247.353V322H227.765V327ZM266.941 327H286.529V322H266.941V327ZM306.118 327H325.706V322H306.118V327ZM345.294 327H364.882V322H345.294V327ZM384.471 327H404.059V322H384.471V327ZM423.647 327H443.235V322H423.647V327ZM462.823 327H482.412V322H462.823V327ZM502 327H521.588V322H502V327ZM541.176 327H560.765V322H541.176V327ZM580.353 327H599.941V322H580.353V327ZM619.529 327H639.118V322H619.529V327ZM658.706 327H668.5V322H658.706V327Z" fill="#BE0E41"/>
</svg>
